<svg width="32" height="33" viewBox="0 0 32 33" fill="none" xmlns="http://www.w3.org/2000/svg">
<path d="M8.2254 28.5455C9.20988 27.914 10.2471 27.475 11.4601 27.475H18.5683C19.6114 27.4257 20.5314 27.1346 21.4573 26.6956L30.3001 22.5617C30.8802 22.3199 31.1088 21.9302 31.0502 21.5899C31.0502 21.3481 30.8744 21.0571 30.5872 20.9091C30.3001 20.7167 29.7785 20.6674 29.1984 20.9091L21.7445 24.3129C21.2815 24.8013 20.6486 25.1417 19.8927 25.1417H14.8648C14.1733 25.1417 14.1733 24.2636 14.8648 24.2636H19.8927C20.5842 24.2636 21.1057 23.8245 21.1057 23.2424C21.1057 22.7097 20.5842 22.2706 19.8927 22.2706H16.195C16.195 22.2706 16.1364 22.2213 16.0778 22.2213C12.7259 21.5899 10.587 21.3432 8.96962 21.7822C7.35226 22.172 6.13924 23.2424 4.63321 25.1861L8.2254 28.5455ZM1.86729 27.766L4.18199 26.0148L3.19751 25.1367L0.941406 26.888L1.86729 27.766ZM4.87347 26.6462L2.55877 28.3975L5.8521 31.4609L8.1668 29.7097L4.87347 26.6462ZM17.5311 5.72513C17.7069 5.57713 18.0526 5.57713 18.2226 5.72513C18.3984 5.91752 18.3984 6.16417 18.2226 6.35656L14.8707 8.98588L15.6793 9.71597L20.8244 5.6758L17.0096 2.27198C16.3767 1.68988 15.4508 1.3495 14.5835 1.3495C13.6576 1.30017 12.7318 1.54189 12.0403 2.12892C11.3488 2.66169 10.9972 3.44112 10.9444 4.17121C10.8858 4.95064 11.2316 5.73006 11.8703 6.31216L14.185 8.35445L17.5311 5.72513ZM23.1919 14.0423H19.4356C19.1485 14.0423 18.9141 13.8499 18.9141 13.6032C18.9141 13.3615 19.1426 13.1642 19.4356 13.1642H23.1919V12.2417H16.488L17.4725 13.6032C17.5897 13.8449 17.5311 14.0916 17.244 14.2347L16.3181 14.6244C16.3181 14.9154 16.3181 15.2065 16.3181 15.5025L17.244 15.8922C17.5311 16.0402 17.5897 16.2819 17.4725 16.5236L16.4294 18.0331C16.951 19.1036 18.2226 19.883 19.6641 19.883C21.5687 19.883 23.1919 18.5215 23.1919 16.9133V14.0423ZM29.55 7.32837C30.0715 7.13598 30.1829 6.69694 30.0129 6.2579C29.7844 5.91752 29.3214 5.72513 28.8585 5.86818C28.337 6.1099 27.7041 6.2579 27.1825 6.49962C26.7196 6.64761 26.4911 7.08172 26.661 7.47143C26.8895 7.86114 27.4111 8.10286 27.9326 7.91047L29.55 7.32837ZM28.2198 8.78856L27.8154 9.76037C27.7568 9.90836 27.5283 10.0021 27.3525 10.0514L25.3894 10.1994C24.6979 10.2487 24.5807 9.41999 25.2722 9.32133L26.9481 9.22267L27.1239 8.83295C27.4697 8.88722 27.8154 8.88722 28.2198 8.78856ZM26.0281 8.25579L24.8151 8.69483C24.1822 8.88722 23.772 8.11273 24.4108 7.86608L25.5652 7.42703C25.6238 7.57502 25.6238 7.66875 25.6824 7.81674H25.741V7.86608C25.7937 8.00913 25.9109 8.10779 26.0281 8.25579ZM25.8523 6.35656L25.3894 6.20857L24.1178 7.13105C23.5962 7.47143 22.9633 6.84 23.4849 6.49962L24.985 5.37981C25.1022 5.28115 25.3308 5.23182 25.5066 5.28115L26.661 5.72019C26.3153 5.86818 26.0281 6.11484 25.8523 6.35656ZM20.4787 19.0543C20.2501 19.1529 19.9571 19.0049 19.8458 18.7632C19.7872 18.5708 19.9044 18.3242 20.1915 18.2304C20.5373 18.1318 20.8244 17.9887 21.0002 17.7421C21.2288 17.5003 21.346 17.2093 21.346 16.9133C21.346 16.6716 21.5745 16.4743 21.8675 16.4743C22.1547 16.4743 22.3305 16.6667 22.3305 16.9133C22.3305 17.4017 22.1547 17.8358 21.8675 18.2255C21.5159 18.6152 21.053 18.9112 20.4787 19.0543ZM13.7748 2.99714C13.4877 3.0958 13.1947 2.99714 13.0834 2.80475C12.9662 2.56303 13.0834 2.31638 13.3119 2.22265C13.8334 2.03026 14.4077 1.98093 14.9879 2.07466C15.5094 2.12399 16.0309 2.36571 16.4353 2.75542C16.6111 2.90341 16.6111 3.19447 16.3767 3.33752C16.2009 3.48552 15.8551 3.48552 15.6852 3.33752C15.4567 3.0958 15.1051 2.94781 14.7593 2.89848C14.4077 2.85408 14.062 2.85408 13.7748 2.99714ZM15.275 14.4813C15.2164 14.2889 15.3336 14.0916 15.5621 13.9929L16.3122 13.6526L15.4449 12.4341L14.6949 12.8238C14.5191 12.9225 14.2319 12.9225 14.062 12.7745C13.7162 12.5328 13.3119 12.3354 12.849 12.1924C12.6732 12.143 12.5032 11.9507 12.5032 11.7533L12.5618 11.0232H10.8858V11.7533C10.9444 11.9457 10.7686 12.143 10.5987 12.1924C10.1358 12.3404 9.73142 12.5328 9.38568 12.7745C9.20988 12.9225 8.92274 12.9225 8.7528 12.8238L8.00272 12.4341L7.13544 13.6526L7.88552 13.9929C8.11406 14.0916 8.23126 14.284 8.17266 14.4813C8.11406 14.871 8.11406 15.2607 8.17266 15.6504C8.23126 15.8428 8.11406 16.0402 7.88552 16.1388L7.13544 16.4792L8.00272 17.7421L8.7528 17.303C8.9286 17.2044 9.21574 17.2044 9.38568 17.3524C9.73142 17.5941 10.1358 17.7914 10.5987 17.9345C10.7745 17.9838 10.9444 18.1762 10.8858 18.3735V19.1036H12.5618L12.5032 18.3735C12.5032 18.1811 12.679 17.9838 12.849 17.9345C13.3119 17.7865 13.7162 17.5941 14.062 17.3524C14.2378 17.2044 14.5249 17.2044 14.6949 17.303L15.4449 17.7421L16.3122 16.4792L15.5621 16.1388C15.3336 16.0402 15.2164 15.8478 15.275 15.6504C15.3336 15.2607 15.3336 14.871 15.275 14.4813ZM14.1206 15.0634C14.1206 16.1832 13.0248 17.1057 11.6945 17.1057C10.4229 17.1057 9.32708 16.1832 9.32708 15.0634C9.32708 13.9436 10.4229 13.0705 11.6945 13.0705C13.0189 13.0705 14.1206 13.9485 14.1206 15.0634ZM13.0775 15.0634C13.0775 14.432 12.4974 13.8943 11.6887 13.8943C10.9386 13.8943 10.3584 14.427 10.3584 15.0634C10.3584 15.6998 10.9386 16.2325 11.6887 16.2325C12.5032 16.2325 13.0775 15.6998 13.0775 15.0634Z" fill="#57ADBE"/>
</svg>
