<svg width="32" height="32" viewBox="0 0 32 32" fill="none" xmlns="http://www.w3.org/2000/svg">
<path d="M17.7449 0H11.3446H11.346C10.9979 0.00138997 10.7148 0.284961 10.7148 0.635271V0.897991C10.7162 1.24828 10.9979 1.53184 11.346 1.53184H17.7463H17.7449C18.093 1.53184 18.3747 1.24827 18.3761 0.897991C18.3761 0.621371 18.4051 0.401752 18.191 0.186283C18.0723 0.0681283 17.9134 0 17.7449 0ZM3.26373 6.66942L0.0926238 10.2182C-0.0399652 10.367 -0.0289161 10.595 0.117484 10.7298C0.24593 10.8466 0.341227 10.9619 0.523525 10.9536V10.9522C0.625728 10.9466 0.721026 10.8966 0.784559 10.816L3.77608 7.46874C3.91282 7.31861 4.04402 7.21436 4.03297 7.02392C4.02331 6.84043 3.90177 6.76259 3.77056 6.64305L3.77194 6.64166C3.62277 6.5096 3.3977 6.52207 3.26373 6.66942ZM14.6773 18.8685C13.8266 19.2896 12.9316 19.6121 12.009 19.8304C10.8102 20.1306 9.90138 19.9916 8.64454 19.9916H8.64592C7.94844 19.9972 7.25236 20.0472 6.56042 20.139C6.49413 20.1459 6.44579 20.2043 6.44855 20.271C6.50241 22.4937 7.45679 24.5968 9.0893 26.0939C10.7204 27.5909 12.8902 28.3527 15.0929 28.204C17.2972 28.0538 19.3439 27.0043 20.761 25.2987C20.7886 25.2654 20.7983 25.2195 20.7845 25.1778C20.7707 25.1347 20.7375 25.1027 20.6947 25.0916C19.2542 24.7121 17.9463 23.9379 16.9158 22.855C15.8854 21.7721 15.1728 20.4238 14.8565 18.9588C14.8496 18.9198 14.8247 18.8865 14.7888 18.8698C14.7543 18.8517 14.7129 18.8517 14.6769 18.8684L14.6773 18.8685ZM21.7668 25.3642C20.2558 27.4507 17.9274 28.7824 15.3735 29.0213C12.8212 29.2604 10.2881 28.3833 8.42091 26.6138C6.55501 24.8442 5.53294 22.3517 5.6172 19.7732C5.62411 19.5688 5.77603 19.4006 5.97629 19.3715C7.19169 19.1796 8.42367 19.1129 9.65271 19.1727C10.3751 19.2297 11.1029 19.1769 11.8101 19.017C12.7603 18.7932 13.6788 18.4513 14.5461 18.0009C14.6165 17.9647 14.7035 17.9439 14.6966 17.8382H14.698C14.5889 16.3453 14.8928 14.8496 15.5764 13.5192C16.2601 12.1889 17.2959 11.0755 18.5693 10.3012C18.6108 10.2762 18.6356 10.2289 18.6315 10.1803C18.6287 10.1316 18.5983 10.0885 18.5528 10.0705C18.2572 9.94676 17.9547 9.84112 17.6467 9.74938C17.4603 9.7035 17.3291 9.53531 17.3291 9.3421V2.50009C17.3277 2.4292 17.2711 2.37221 17.1992 2.37082H11.89C11.8196 2.37082 11.7616 2.4292 11.7602 2.50009V9.3421C11.7602 9.52698 11.6387 9.69101 11.4619 9.74244C10.2451 10.1122 9.10289 10.696 8.08913 11.4689C7.92892 11.5926 7.70381 11.5857 7.55188 11.4508L4.21368 8.42607C4.18882 8.40244 4.15567 8.38993 4.12114 8.39271C4.08799 8.3941 4.05623 8.40939 4.03275 8.43441L1.96655 10.7475C1.94446 10.7725 1.93203 10.8058 1.93479 10.8392C1.93617 10.874 1.95136 10.9059 1.97622 10.9282L5.31029 13.946V13.9474C5.45807 14.0822 5.48983 14.3032 5.38625 14.4756C3.90153 16.9346 3.45543 19.8885 4.14599 22.6813C4.83655 25.4739 6.60854 27.8717 9.06558 29.3425C11.5226 30.8132 14.4632 31.2344 17.2295 30.5129C19.9973 29.7901 22.3634 27.9858 23.801 25.4975C23.8258 25.4558 23.8258 25.403 23.7982 25.3613C23.772 25.321 23.725 25.2987 23.6753 25.3043C23.0814 25.3738 22.4806 25.3766 21.884 25.3113C21.8384 25.3057 21.793 25.3267 21.7668 25.3642ZM24.083 11.9613C22.6908 11.6027 21.2143 11.8154 19.9769 12.5521C18.7408 13.2902 17.8459 14.4912 17.4895 15.8924C17.1332 17.2936 17.3445 18.781 18.0765 20.025C18.8099 21.2704 20.0032 22.1712 21.3954 22.5298C22.7875 22.8885 24.2654 22.6758 25.5014 21.9377C26.7389 21.2009 27.6338 19.9999 27.9902 18.5974C28.3451 17.1962 28.1338 15.7102 27.4018 14.4663C26.6684 13.2208 25.4751 12.32 24.083 11.9613ZM19.582 11.814C21.2587 10.8284 23.2945 10.6811 25.0913 11.4164C26.8895 12.1531 28.2458 13.6878 28.7624 15.5714C29.279 17.4535 28.8964 19.4719 27.728 21.0316C26.5595 22.5912 24.7378 23.5156 22.796 23.5351C20.8555 23.5532 19.016 22.6622 17.8184 21.1248C16.621 19.5874 16.2025 17.5759 16.6831 15.6841C17.0975 14.0564 18.1414 12.6633 19.582 11.814ZM25.6439 24.9749L29.3868 31.3315C29.7943 31.9862 30.645 32.1948 31.3052 31.8014C31.9654 31.408 32.1947 30.5559 31.8204 29.8817L28.0789 23.5237C28.0596 23.4903 28.0278 23.4681 27.9905 23.4625C27.9532 23.4555 27.9146 23.4667 27.8869 23.4903C27.2323 24.0352 26.4975 24.4731 25.7075 24.7886C25.673 24.8025 25.6453 24.8303 25.6329 24.8664C25.6218 24.9026 25.6246 24.9415 25.6439 24.9749ZM8.74573 22.0586C8.52061 22.053 8.33969 21.8667 8.33969 21.6388C8.33969 21.4122 8.52062 21.2259 8.74573 21.219H8.82722C9.05373 21.2259 9.23326 21.4122 9.23326 21.6388C9.23326 21.8667 9.05372 22.053 8.82722 22.0586H8.74573ZM12.3822 24.2215V24.2229C12.2703 24.2257 12.1612 24.1826 12.0811 24.1047C11.9996 24.0255 11.9541 23.9171 11.9541 23.8031C11.9541 23.6905 11.9996 23.5821 12.0811 23.5028C12.1612 23.4236 12.2703 23.3805 12.3822 23.3847H12.4665C12.5783 23.3805 12.6874 23.4236 12.7689 23.5028C12.849 23.5821 12.8946 23.6905 12.8946 23.8031C12.8946 23.9171 12.849 24.0255 12.7689 24.1047C12.6874 24.1826 12.5783 24.2257 12.4665 24.2229L12.3822 24.2215ZM13.3366 21.7583H13.3379C13.1073 21.7583 12.9208 21.5706 12.9208 21.3399C12.9208 21.1077 13.1073 20.9201 13.3379 20.9201H13.4194C13.6487 20.9201 13.8352 21.1077 13.8352 21.3399C13.8352 21.5706 13.6487 21.7583 13.4194 21.7583H13.3366ZM13.8213 26.6011L13.8227 26.6025C13.5935 26.6025 13.407 26.4149 13.407 26.1827C13.407 25.9506 13.5935 25.7629 13.8227 25.7629H13.9056C14.1349 25.7629 14.3213 25.9506 14.3213 26.1827C14.3213 26.4149 14.1349 26.6025 13.9056 26.6025L13.8213 26.6011ZM9.92252 25.1318H9.9239C9.69878 25.1249 9.51924 24.94 9.51924 24.712C9.51924 24.4841 9.69879 24.2992 9.9239 24.2922H10.0082C10.2333 24.2992 10.4128 24.4841 10.4128 24.712C10.4128 24.94 10.2333 25.1249 10.0082 25.1318H9.92252ZM23.1924 15.9241L22.8029 15.6989H22.8043C22.7642 15.6753 22.7159 15.6753 22.6758 15.6989L21.8983 16.1493C21.8596 16.1715 21.8347 16.2146 21.8347 16.2605V17.1682C21.8333 17.2141 21.8582 17.2572 21.8983 17.2794L22.6758 17.7312C22.7159 17.7562 22.7642 17.7562 22.8043 17.7312L23.5818 17.2794C23.6219 17.2572 23.6468 17.2141 23.6454 17.1682V16.2619C23.6454 16.216 23.6205 16.1729 23.5818 16.1507L23.1924 15.9241ZM23.1565 18.5694V19.4757L23.1579 19.4743C23.1565 19.5216 23.1813 19.5647 23.2228 19.5855L24.0003 20.0373V20.0387C24.0404 20.0623 24.0901 20.0623 24.1302 20.0387L24.9077 19.5869V19.5855C24.9478 19.5633 24.9727 19.5202 24.9713 19.4743V18.568C24.9727 18.5221 24.9478 18.479 24.9077 18.4568L24.1302 18.005C24.0901 17.9814 24.0418 17.9814 24.0031 18.005L23.2255 18.4568H23.2241C23.1841 18.479 23.1592 18.5221 23.1592 18.568L23.1565 18.5694ZM20.7519 20.4904H20.7533C20.977 20.2652 21.3016 20.1721 21.6096 20.2472C21.6538 20.2583 21.7008 20.2444 21.7311 20.211L22.2864 19.6522C22.3112 19.6286 22.325 19.5952 22.3236 19.5619V18.568C22.325 18.5221 22.3002 18.479 22.2587 18.4568L21.5737 18.0564C21.5226 18.0272 21.4604 18.0356 21.419 18.0759L20.9991 18.5012C20.966 18.5318 20.9522 18.5777 20.9632 18.6208C21.0571 19.0211 20.8776 19.434 20.5213 19.6355C20.1649 19.8357 19.7202 19.7732 19.4316 19.484C19.1429 19.1935 19.0808 18.7459 19.2796 18.3873C19.4785 18.0287 19.8887 17.8466 20.2865 17.9411C20.3293 17.9522 20.3763 17.9383 20.4067 17.9049L20.9632 17.3461C20.9867 17.3225 20.9992 17.2891 20.9978 17.2558V16.1729C20.9992 16.1396 20.9867 16.1062 20.9632 16.0826L20.4067 15.5224C20.3749 15.4904 20.3293 15.4779 20.2865 15.489C19.8887 15.5835 19.4785 15.4014 19.2796 15.0442C19.0808 14.6856 19.1429 14.238 19.4302 13.9475C19.7188 13.6569 20.1636 13.5944 20.5199 13.7945C20.8762 13.9947 21.0571 14.409 20.9632 14.8079C20.9522 14.8524 20.966 14.8983 20.9978 14.9289L21.4176 15.3528C21.4577 15.3945 21.5226 15.4029 21.5723 15.3723L22.5308 14.8163C22.6606 14.7384 22.8222 14.7398 22.952 14.8176L23.9064 15.3723C23.9561 15.4029 24.021 15.3945 24.0611 15.3528L24.481 14.9302H24.4823C24.5141 14.8983 24.5279 14.8524 24.5169 14.8093C24.4229 14.4104 24.6039 13.9961 24.9602 13.7959C25.3152 13.5958 25.7599 13.6583 26.0485 13.9488C26.3372 14.2394 26.398 14.6856 26.2005 15.0442C26.0016 15.4028 25.59 15.5849 25.1936 15.4904C25.1508 15.4793 25.1052 15.4918 25.0734 15.5224L24.5168 16.084C24.4934 16.109 24.4796 16.1409 24.4809 16.1757V17.1696C24.4809 17.2155 24.5044 17.2586 24.5445 17.2808L25.5942 17.891C25.7226 17.9661 25.8027 18.1037 25.8027 18.2538V19.7912C25.8041 19.9538 25.7115 20.1012 25.5651 20.1721L24.271 20.9199C24.1398 20.9964 23.9796 20.9964 23.8498 20.9186L22.8954 20.3625H22.894C22.8443 20.3333 22.7808 20.3417 22.7393 20.3834L22.3195 20.8046C22.2877 20.8365 22.2739 20.8838 22.2849 20.9283C22.3595 21.2452 22.2615 21.5788 22.0281 21.804C21.7946 22.0292 21.459 22.114 21.1483 22.025C20.8361 21.9361 20.5944 21.6872 20.5129 21.3717C20.4314 21.0562 20.5226 20.7212 20.7519 20.4904ZM15.6018 24.5785C15.4899 24.5826 15.3808 24.5396 15.2993 24.4603C15.2192 24.3825 15.1736 24.2727 15.1736 24.1601C15.1736 24.0461 15.2192 23.9377 15.2993 23.8598C15.3808 23.7806 15.4899 23.7375 15.6018 23.7417H15.6833C15.7965 23.7375 15.9057 23.7806 15.9858 23.8598C16.0672 23.9377 16.1128 24.0461 16.1128 24.1601C16.1128 24.2727 16.0672 24.3825 15.9858 24.4603C15.9057 24.5396 15.7965 24.5826 15.6833 24.5785H15.6018ZM21.6486 24.4367L21.7107 24.4478C24.2727 24.8342 26.8456 23.8181 28.4632 21.7817C30.0805 19.7438 30.4962 16.9944 29.5557 14.5646C28.6151 12.1334 26.4605 10.3915 23.9 9.99258C21.3393 9.59364 18.7622 10.5973 17.1351 12.6253C15.5067 14.6548 15.0772 17.403 16.0053 19.8385C16.9348 22.2725 19.0811 24.0255 21.6391 24.4368L21.6486 24.4367Z" fill="#57ADBE"/>
</svg>
