<svg width="32" height="33" viewBox="0 0 32 33" fill="none" xmlns="http://www.w3.org/2000/svg">
<path d="M5.40447 15.2223C5.40055 15.6498 4.77732 15.6491 4.7757 15.2222C4.78338 14.7982 5.39458 14.7977 5.40447 15.2223ZM5.81322 12.7579C5.50579 13.2573 5.31715 13.7458 5.27527 14.1985C5.93483 14.307 6.32507 15.1413 5.9669 15.7324C6.49785 16.1096 7.28379 16.2928 8.21642 16.2928C8.04526 15.7611 7.90557 15.1827 7.80426 14.5684C7.00783 14.0045 6.33718 13.3902 5.81322 12.7579ZM8.62858 15.1109C8.7194 15.5132 8.82771 15.894 8.9535 16.2532C9.40403 16.2101 9.88263 16.1275 10.3716 16.0054C9.77372 15.7561 9.17233 15.4397 8.62858 15.1109ZM17.1657 11.5473C18.5277 9.39694 17.2097 7.969 14.7659 8.01965C14.9371 8.55131 15.0733 9.12609 15.1746 9.74037C15.9675 10.3008 16.6418 10.9151 17.1657 11.5473ZM6.23937 12.1544C6.62355 12.6358 7.10914 13.1136 7.67498 13.5698C7.6331 13.1136 7.60863 12.6394 7.60863 12.1544C7.60863 11.6694 7.6331 11.1953 7.67498 10.7354C7.10914 11.1917 6.62355 11.673 6.23937 12.1544ZM16.7395 12.1544C16.3553 11.673 15.8698 11.1917 15.3039 10.7354C15.3905 11.6498 15.3938 12.6647 15.3004 13.577C15.8592 13.1279 16.3483 12.6502 16.7395 12.1544ZM13.753 7.35508C13.3617 6.48932 12.8657 5.83192 12.3103 5.49784C11.9558 6.06675 11.0232 6.06679 10.6686 5.49784C10.1131 5.83192 9.61715 6.48932 9.22597 7.35508C9.95597 7.4413 10.7175 7.62091 11.4895 7.87595C12.2719 7.61372 13.0369 7.4413 13.753 7.35508ZM11.8038 4.89073C11.7963 4.46621 11.1826 4.46623 11.175 4.89071C11.1756 5.31384 11.8032 5.31395 11.8038 4.89073ZM8.9535 8.05557C8.82771 8.4148 8.71591 8.79559 8.62508 9.19792C9.17258 8.86871 9.7802 8.54747 10.3821 8.29984C9.88962 8.17772 9.41452 8.09867 8.9535 8.05557ZM14.3503 9.19792C14.263 8.79559 14.1512 8.4148 14.029 8.05916C13.5748 8.10227 13.0962 8.18131 12.6037 8.29984C13.1992 8.55458 13.8118 8.86882 14.3503 9.19792ZM9.22938 16.9574C10.4474 19.7363 12.5312 19.7372 13.7495 16.9574C13.0334 16.8711 12.2719 16.6951 11.4895 16.4329C10.7069 16.6951 9.94548 16.8711 9.22938 16.9574ZM7.80426 9.74037C7.90208 9.12609 8.04177 8.55131 8.21292 8.01965C5.76708 7.95335 4.45437 9.41637 5.81322 11.5437C6.33718 10.9151 7.01132 10.3008 7.80426 9.74037ZM17.1622 12.7543C16.6278 13.3973 15.9536 14.008 15.1746 14.5649C15.0733 15.1791 14.9336 15.7575 14.7624 16.2928C15.6916 16.2928 16.4811 16.1096 17.012 15.7324C16.9281 15.5815 16.8758 15.4091 16.8758 15.2223C16.8758 14.7157 17.2321 14.2919 17.7037 14.1985C17.6617 13.7458 17.4696 13.2537 17.1622 12.7543ZM11.713 29.006L8.93601 30.2346C9.14683 31.9235 7.10274 33.0702 5.83062 31.9661C4.79054 31.137 4.92247 29.3817 6.07171 28.733L5.14599 26.6746C4.00468 26.9245 3.15367 25.4347 3.91292 24.5192C5.15051 23.0635 7.15502 25.0568 5.77826 26.3692L6.73536 28.4923C7.50493 28.344 8.39619 28.791 8.73689 29.5412L11.479 28.327C11.363 27.1956 12.7538 26.454 13.5923 27.1919C15.0568 28.538 12.9153 30.6056 11.713 29.006ZM4.45786 24.9682C3.971 25.6148 4.89006 26.3782 5.40098 25.7477C5.88929 25.1025 4.96451 24.342 4.45786 24.9682ZM6.08561 29.6454C5.1106 30.9542 6.94429 32.4776 7.97891 31.2153C8.95623 29.9077 7.12193 28.3833 6.08561 29.6454ZM12.3033 27.8457C11.8169 28.4934 12.7339 29.2536 13.2464 28.6288C13.7329 27.9832 12.8148 27.2206 12.3033 27.8457ZM25.109 23.1469L22.587 25.834L23.4358 26.6782L25.9578 23.9911L25.109 23.1469ZM20.561 20.1545C20.2454 20.5384 19.888 20.9187 19.5201 21.2645L21.326 23.0571L22.3669 21.9507L20.561 20.1545ZM24.1344 22.1806C23.8509 21.8986 23.3873 21.9024 23.111 22.1914L21.5775 23.8223C21.3155 24.1168 21.3295 24.5838 21.6124 24.8641L22.0839 25.3346L24.6059 22.6476L24.1344 22.1806ZM29.4055 11.0372L28.4449 13.0741C29.3454 13.8403 28.7711 15.4458 27.589 15.4198C25.717 15.334 25.9571 12.5045 27.8126 12.7615L28.8046 10.6636C28.2087 10.1433 27.9832 9.14776 28.3331 8.40044L25.6888 6.98147C24.9037 7.78544 23.4759 7.16128 23.4951 6.01515C23.6014 3.98522 26.4853 4.39087 26.0486 6.36719L28.7313 7.80412C29.419 7.05042 30.7121 7.03459 31.4279 7.79693C32.8858 9.28047 31.3182 11.783 29.4055 11.0372ZM24.7981 5.38288C24.0044 5.40051 24.0057 6.61671 24.8016 6.62943C25.5999 6.60691 25.5907 5.39766 24.7981 5.38288ZM27.5855 13.4548C26.7911 13.4752 26.7966 14.6916 27.5925 14.7014C28.3866 14.6785 28.3778 13.4649 27.5855 13.4548ZM30.0796 7.94421C29.4042 7.94565 28.8604 8.51417 28.8641 9.20507C28.8458 10.2918 30.2228 10.8716 30.9459 10.0745C31.7119 9.33698 31.1267 7.90647 30.0796 7.94421ZM26.4608 24.4904L23.9388 27.1775L28.5776 31.7829C28.8675 32.0702 29.3321 32.0631 29.6115 31.7649L31.1171 30.1591C31.2533 30.0154 31.3267 29.825 31.3231 29.6239C31.3197 29.4263 31.2394 29.2395 31.0996 29.0994L26.4608 24.4904ZM10.0992 12.0933C10.1436 13.8109 12.5886 13.8144 12.6317 12.0933C12.5879 10.3777 10.1448 10.3805 10.0992 12.0933ZM14.0254 16.2532C14.1512 15.894 14.2595 15.5132 14.3503 15.1109C13.8017 15.4391 13.2072 15.7538 12.6072 16.0054C13.0962 16.1275 13.5713 16.2101 14.0254 16.2532ZM14.5284 10.1643C14.7172 11.4254 14.7172 12.8905 14.5284 14.1482C13.6201 14.7665 12.5332 15.314 11.4895 15.6713C10.4494 15.3153 9.3457 14.762 8.45043 14.1446C8.25804 12.8881 8.26367 11.4244 8.45043 10.1643C9.35491 9.54439 10.4491 8.98823 11.4929 8.63395C12.5369 8.99596 13.624 9.54297 14.5284 10.1643ZM11.3672 10.0745C8.76716 10.1596 8.77006 14.0311 11.3672 14.1158C13.9594 14.0329 13.9636 10.1586 11.3672 10.0745ZM18.6852 18.1068C15.343 22.5113 8.73492 22.9733 4.85612 19.0265C1.15735 15.5011 1.05262 9.05606 4.62902 5.40097C8.04901 1.60351 14.3216 1.48636 17.8748 5.16375C21.3583 8.60834 21.7084 14.243 18.6852 18.1068ZM18.4057 14.3314C18.3917 13.6345 18.1123 12.8872 17.6198 12.1472C19.5382 9.34305 17.7669 7.11739 14.504 7.294C14.001 6.08698 13.3094 5.19969 12.4919 4.78657C12.3594 3.55008 10.62 3.54932 10.4869 4.78657C9.6696 5.19969 8.97439 6.09058 8.47141 7.30119C5.24406 7.1134 3.42964 9.31998 5.3591 12.1508C4.86303 12.8908 4.58715 13.6345 4.57316 14.3314C3.54306 14.9527 4.28108 16.6232 5.41846 16.2029C6.10454 16.7908 7.3017 17.0737 8.4784 17.0148C9.95358 20.6794 13.027 20.6803 14.5005 17.0148C15.6761 17.0739 16.8753 16.7907 17.5569 16.2029C17.6617 16.2425 17.7735 16.2676 17.8887 16.2676C18.907 16.2758 19.2812 14.8446 18.4057 14.3314ZM3.45556 20.5173C-1.03999 16.2373 -1.16586 8.39893 3.17593 3.95685C7.36396 -0.665567 14.9331 -0.799994 19.279 3.66936C23.8019 8.10659 23.9117 15.6532 19.5549 20.2299C15.2556 24.8612 7.92527 25.013 3.45556 20.5173ZM18.549 19.2349C24.4854 12.7141 20.4593 1.70229 11.189 1.74386C8.49938 1.79056 5.99129 2.91496 4.12612 4.90152C0.284843 8.82543 0.39963 15.7566 4.37054 19.5437C8.29991 23.5771 15.0741 23.3117 18.549 19.2349ZM17.5744 15.2222C17.5783 15.6498 18.2015 15.6491 18.2032 15.2223C18.1956 14.7983 17.5844 14.7976 17.5744 15.2222Z" fill="#57ADBE"/>
</svg>
