<svg width="32" height="32" viewBox="0 0 32 32" fill="none" xmlns="http://www.w3.org/2000/svg">
<path d="M28.7112 9.55704V12.347C28.7112 12.5498 28.549 12.718 28.3425 12.718H20.7764C20.5699 12.718 20.4077 12.5498 20.4077 12.347V9.55704C20.4077 9.35421 20.5699 9.18604 20.7764 9.18604H28.3425C28.549 9.18604 28.7112 9.3542 28.7112 9.55704Z" fill="#57ADBE"/>
<path d="M21.8958 26.8733C22.2201 26.8733 22.483 26.6088 22.483 26.2825C22.483 25.9562 22.2201 25.6917 21.8958 25.6917C21.5715 25.6917 21.3086 25.9562 21.3086 26.2825C21.3086 26.6088 21.5715 26.8733 21.8958 26.8733Z" fill="#57ADBE"/>
<path d="M25.4991 28.1889C25.6807 28.1889 25.8279 28.0408 25.8279 27.8581C25.8279 27.6754 25.6807 27.5273 25.4991 27.5273C25.3176 27.5273 25.1704 27.6754 25.1704 27.8581C25.1704 28.0408 25.3176 28.1889 25.4991 28.1889Z" fill="#57ADBE"/>
<path d="M27.4967 25.9562C27.6782 25.9562 27.8254 25.8081 27.8254 25.6254C27.8254 25.4428 27.6782 25.2947 27.4967 25.2947C27.3151 25.2947 27.168 25.4428 27.168 25.6254C27.168 25.8081 27.3151 25.9562 27.4967 25.9562Z" fill="#57ADBE"/>
<path d="M27.4084 17.5904V13.7073H21.7105V17.5904C18.9524 18.743 17.1187 21.4884 17.1187 24.5108C17.1187 28.6413 20.4568 32 24.5618 32C28.662 32 32.0002 28.6413 32.0002 24.5108C32.0002 21.4884 30.1664 18.743 27.4084 17.5904ZM25.2652 17.4557C25.5759 17.4557 25.8279 17.7092 25.8279 18.0219C25.8279 18.3346 25.5759 18.5882 25.2652 18.5882C24.9543 18.5882 24.7024 18.3346 24.7024 18.0219C24.7024 17.7092 24.9543 17.4557 25.2652 17.4557ZM23.3707 21.6469C23.6814 21.6469 23.9334 21.9004 23.9334 22.2131C23.9334 22.5258 23.6814 22.7794 23.3707 22.7794C23.0598 22.7794 22.8079 22.5258 22.8079 22.2131C22.8079 21.9004 23.0598 21.6469 23.3707 21.6469ZM24.5618 30.145C21.5139 30.145 19.031 27.6767 18.9672 24.6245H30.1517C30.0926 27.6767 27.61 30.145 24.5618 30.145Z" fill="#57ADBE"/>
<path d="M20.5111 5.00122H3.4172C3.09265 5.00122 2.82715 5.26836 2.82715 5.59483V28.3891C2.82715 28.7155 3.09265 28.9827 3.4172 28.9827H17.4089C16.6074 27.6817 16.1355 26.1532 16.1355 24.5109C16.1355 22.5421 16.8091 20.6921 17.9742 19.2229H5.45248C5.24603 19.2229 5.08376 19.0547 5.08376 18.8519C5.08376 18.6441 5.24603 18.4809 5.45248 18.4809H18.4757C18.5249 18.4809 18.569 18.4908 18.6133 18.5056C19.1099 18.006 19.6704 17.5658 20.2897 17.1997L20.6584 13.6975C19.9702 13.6332 19.4246 13.0594 19.4246 12.347V9.55712C19.4246 8.80521 20.0293 8.19678 20.7765 8.19678H21.101V5.59483C21.101 5.26836 20.8355 5.00122 20.5111 5.00122ZM14.8868 26.6577H5.45248C5.24603 26.6577 5.08376 26.4895 5.08376 26.2867C5.08376 26.079 5.24603 25.9157 5.45248 25.9157H14.8868C15.0933 25.9157 15.2555 26.079 15.2555 26.2867C15.2555 26.4895 15.0933 26.6577 14.8868 26.6577ZM5.45248 22.1958H14.8868C15.0933 22.1958 15.2555 22.364 15.2555 22.5668C15.2555 22.7746 15.0933 22.9378 14.8868 22.9378H5.45248C5.24603 22.9378 5.08376 22.7746 5.08376 22.5668C5.08376 22.364 5.24603 22.1958 5.45248 22.1958ZM18.4757 15.503H5.45248C5.24603 15.503 5.08376 15.3398 5.08376 15.132C5.08376 14.9292 5.24603 14.761 5.45248 14.761H18.4757C18.6773 14.761 18.8444 14.9292 18.8444 15.132C18.8444 15.3398 18.6773 15.503 18.4757 15.503ZM18.4757 11.7881H5.45248C5.24603 11.7881 5.08376 11.6199 5.08376 11.4171C5.08376 11.2093 5.24603 11.0461 5.45248 11.0461H18.4757C18.6773 11.0461 18.8444 11.2093 18.8444 11.4171C18.8444 11.6199 18.6773 11.7881 18.4757 11.7881ZM18.4757 8.06816H5.45248C5.24603 8.06816 5.08376 7.89996 5.08376 7.69716C5.08376 7.49436 5.24603 7.32616 5.45248 7.32616H18.4757C18.6773 7.32616 18.8444 7.49436 18.8444 7.69716C18.8444 7.89996 18.6773 8.06816 18.4757 8.06816Z" fill="#57ADBE"/>
<path d="M23.9275 3.72483C23.9275 2.39417 22.8558 1.3158 21.5333 1.3158H19.3751V0.371C19.3751 0.16325 19.2128 0 19.0064 0C18.8047 0 18.6376 0.16325 18.6376 0.371V1.3158H16.5581V0.371C16.5581 0.16325 16.3909 0 16.1893 0C15.9877 0 15.8206 0.16325 15.8206 0.371V1.3158H13.7411V0.371C13.7411 0.16325 13.5739 0 13.3723 0C13.1707 0 13.0036 0.16325 13.0036 0.371V1.3158H10.924V0.371C10.924 0.16325 10.7568 0 10.5553 0C10.3488 0 10.1866 0.16325 10.1866 0.371V1.3158H8.10704V0.371C8.10704 0.16325 7.93984 0 7.73832 0C7.53175 0 7.3696 0.16325 7.3696 0.371V1.3158H5.29003V0.371C5.29003 0.16325 5.12283 0 4.92131 0C4.71474 0 4.55259 0.16325 4.55259 0.371V1.3158H2.39428C1.07183 1.3158 0 2.39417 0 3.72483V29.4178C0 30.7485 1.07183 31.8268 2.39428 31.8268H20.314C19.391 31.2839 18.5805 30.5677 17.9242 29.7244H3.4169C2.68487 29.7244 2.08941 29.1254 2.08941 28.3889V5.59465C2.08941 4.85821 2.68486 4.25919 3.4169 4.25919H20.5108C21.2427 4.25919 21.8381 4.85821 21.8381 5.59465V8.19663H23.9275V3.72483Z" fill="#57ADBE"/>
</svg>
